<mxfile host="app.diagrams.net" agent="Mozilla/5.0 (Windows NT 10.0; Win64; x64) AppleWebKit/537.36 (KHTML, like Gecko) Chrome/129.0.0.0 Safari/537.36 Edg/129.0.0.0" version="24.7.13">
  <diagram name="第 1 页" id="i2iw0MnBpwWRf0WntCYD">
    <mxGraphModel dx="906" dy="730" grid="1" gridSize="10" guides="1" tooltips="1" connect="1" arrows="1" fold="1" page="1" pageScale="1" pageWidth="827" pageHeight="1169" math="0" shadow="0">
      <root>
        <mxCell id="0" />
        <mxCell id="1" parent="0" />
        <mxCell id="-V5eyxkP05oD3qSyahIk-1" value="software" style="rounded=0;whiteSpace=wrap;html=1;" vertex="1" parent="1">
          <mxGeometry x="200" y="240" width="320" height="80" as="geometry" />
        </mxCell>
        <mxCell id="-V5eyxkP05oD3qSyahIk-2" value="hardware" style="rounded=0;whiteSpace=wrap;html=1;" vertex="1" parent="1">
          <mxGeometry x="190" y="440" width="330" height="80" as="geometry" />
        </mxCell>
        <mxCell id="-V5eyxkP05oD3qSyahIk-4" value="&lt;font style=&quot;font-size: 14px;&quot;&gt;pintools获得DCFG&lt;/font&gt;" style="rounded=0;whiteSpace=wrap;html=1;fillColor=#fff2cc;strokeColor=#d6b656;" vertex="1" parent="1">
          <mxGeometry x="280" y="680" width="280" height="80" as="geometry" />
        </mxCell>
        <mxCell id="-V5eyxkP05oD3qSyahIk-5" value="&lt;font style=&quot;font-size: 14px;&quot;&gt;-xCORE-AVX2&lt;/font&gt;&lt;div&gt;&lt;font style=&quot;font-size: 14px;&quot;&gt;选项&lt;/font&gt;&lt;span style=&quot;font-size: 14px; background-color: initial;&quot;&gt;生成bin&lt;/span&gt;&lt;/div&gt;" style="rounded=0;whiteSpace=wrap;html=1;fillColor=#dae8fc;strokeColor=#6c8ebf;" vertex="1" parent="1">
          <mxGeometry x="280" y="560" width="120" height="80" as="geometry" />
        </mxCell>
        <mxCell id="-V5eyxkP05oD3qSyahIk-6" value="&lt;font style=&quot;font-size: 14px;&quot;&gt;-xMIC-AVX512&lt;/font&gt;&lt;div style=&quot;font-size: 14px;&quot;&gt;&lt;font style=&quot;font-size: 14px;&quot;&gt;选项&lt;span style=&quot;background-color: initial;&quot;&gt;生成bin&lt;/span&gt;&lt;/font&gt;&lt;/div&gt;" style="rounded=0;whiteSpace=wrap;html=1;fillColor=#d5e8d4;strokeColor=#82b366;" vertex="1" parent="1">
          <mxGeometry x="440" y="560" width="120" height="80" as="geometry" />
        </mxCell>
        <mxCell id="-V5eyxkP05oD3qSyahIk-7" value="&lt;font style=&quot;font-size: 14px;&quot;&gt;图匹配算法和序列对齐算法获得匹配的片段&lt;/font&gt;" style="rounded=0;whiteSpace=wrap;html=1;fillColor=#f8cecc;strokeColor=#b85450;" vertex="1" parent="1">
          <mxGeometry x="280" y="800" width="280" height="80" as="geometry" />
        </mxCell>
        <mxCell id="-V5eyxkP05oD3qSyahIk-8" value="&lt;font style=&quot;font-size: 14px;&quot;&gt;在匹配的片段上运行SimPoint工具&lt;/font&gt;" style="rounded=0;whiteSpace=wrap;html=1;fillColor=#ffe6cc;strokeColor=#d79b00;" vertex="1" parent="1">
          <mxGeometry x="280" y="920" width="280" height="80" as="geometry" />
        </mxCell>
        <mxCell id="-V5eyxkP05oD3qSyahIk-10" value="&lt;font style=&quot;font-size: 14px;&quot;&gt;进行性能评估&lt;/font&gt;" style="rounded=0;whiteSpace=wrap;html=1;fillColor=#e1d5e7;strokeColor=#9673a6;" vertex="1" parent="1">
          <mxGeometry x="280" y="1040" width="280" height="80" as="geometry" />
        </mxCell>
        <mxCell id="-V5eyxkP05oD3qSyahIk-11" value="" style="endArrow=classic;html=1;rounded=0;exitX=0.5;exitY=1;exitDx=0;exitDy=0;" edge="1" parent="1" source="-V5eyxkP05oD3qSyahIk-5">
          <mxGeometry width="50" height="50" relative="1" as="geometry">
            <mxPoint x="420" y="710" as="sourcePoint" />
            <mxPoint x="340" y="680" as="targetPoint" />
          </mxGeometry>
        </mxCell>
        <mxCell id="-V5eyxkP05oD3qSyahIk-13" value="" style="endArrow=classic;html=1;rounded=0;exitX=0.5;exitY=1;exitDx=0;exitDy=0;" edge="1" parent="1">
          <mxGeometry width="50" height="50" relative="1" as="geometry">
            <mxPoint x="339.5" y="760" as="sourcePoint" />
            <mxPoint x="339.5" y="800" as="targetPoint" />
          </mxGeometry>
        </mxCell>
        <mxCell id="-V5eyxkP05oD3qSyahIk-16" value="" style="endArrow=classic;html=1;rounded=0;exitX=0.5;exitY=1;exitDx=0;exitDy=0;" edge="1" parent="1">
          <mxGeometry width="50" height="50" relative="1" as="geometry">
            <mxPoint x="499.5" y="640" as="sourcePoint" />
            <mxPoint x="499.5" y="680" as="targetPoint" />
          </mxGeometry>
        </mxCell>
        <mxCell id="-V5eyxkP05oD3qSyahIk-17" value="" style="endArrow=classic;html=1;rounded=0;exitX=0.5;exitY=1;exitDx=0;exitDy=0;" edge="1" parent="1">
          <mxGeometry width="50" height="50" relative="1" as="geometry">
            <mxPoint x="499.5" y="760" as="sourcePoint" />
            <mxPoint x="499.5" y="800" as="targetPoint" />
          </mxGeometry>
        </mxCell>
        <mxCell id="-V5eyxkP05oD3qSyahIk-18" value="" style="endArrow=classic;html=1;rounded=0;exitX=0.5;exitY=1;exitDx=0;exitDy=0;" edge="1" parent="1">
          <mxGeometry width="50" height="50" relative="1" as="geometry">
            <mxPoint x="339.5" y="880" as="sourcePoint" />
            <mxPoint x="339.5" y="920" as="targetPoint" />
          </mxGeometry>
        </mxCell>
        <mxCell id="-V5eyxkP05oD3qSyahIk-19" value="" style="endArrow=classic;html=1;rounded=0;exitX=0.5;exitY=1;exitDx=0;exitDy=0;" edge="1" parent="1">
          <mxGeometry width="50" height="50" relative="1" as="geometry">
            <mxPoint x="339.5" y="1000" as="sourcePoint" />
            <mxPoint x="339.5" y="1040" as="targetPoint" />
          </mxGeometry>
        </mxCell>
        <mxCell id="-V5eyxkP05oD3qSyahIk-20" value="" style="endArrow=classic;html=1;rounded=0;exitX=0.5;exitY=1;exitDx=0;exitDy=0;" edge="1" parent="1">
          <mxGeometry width="50" height="50" relative="1" as="geometry">
            <mxPoint x="499.5" y="880" as="sourcePoint" />
            <mxPoint x="499.5" y="920" as="targetPoint" />
          </mxGeometry>
        </mxCell>
        <mxCell id="-V5eyxkP05oD3qSyahIk-21" value="" style="endArrow=classic;html=1;rounded=0;exitX=0.5;exitY=1;exitDx=0;exitDy=0;" edge="1" parent="1">
          <mxGeometry width="50" height="50" relative="1" as="geometry">
            <mxPoint x="499.5" y="1000" as="sourcePoint" />
            <mxPoint x="499.5" y="1040" as="targetPoint" />
          </mxGeometry>
        </mxCell>
        <mxCell id="-V5eyxkP05oD3qSyahIk-23" value="A1" style="rounded=1;whiteSpace=wrap;html=1;fillColor=#dae8fc;strokeColor=#6c8ebf;" vertex="1" parent="1">
          <mxGeometry x="120" y="1240" width="120" height="40" as="geometry" />
        </mxCell>
        <mxCell id="-V5eyxkP05oD3qSyahIk-24" value="A2" style="rounded=1;whiteSpace=wrap;html=1;fillColor=#ffe6cc;strokeColor=#d79b00;" vertex="1" parent="1">
          <mxGeometry x="240" y="1240" width="120" height="40" as="geometry" />
        </mxCell>
        <mxCell id="-V5eyxkP05oD3qSyahIk-25" value="A3" style="rounded=1;whiteSpace=wrap;html=1;fillColor=#d5e8d4;strokeColor=#82b366;" vertex="1" parent="1">
          <mxGeometry x="360" y="1240" width="120" height="40" as="geometry" />
        </mxCell>
        <mxCell id="-V5eyxkP05oD3qSyahIk-26" value="A4" style="rounded=1;whiteSpace=wrap;html=1;fillColor=#e1d5e7;strokeColor=#9673a6;" vertex="1" parent="1">
          <mxGeometry x="480" y="1240" width="120" height="40" as="geometry" />
        </mxCell>
        <mxCell id="-V5eyxkP05oD3qSyahIk-27" value="B1" style="rounded=1;whiteSpace=wrap;html=1;fillColor=#dae8fc;strokeColor=#6c8ebf;" vertex="1" parent="1">
          <mxGeometry x="110" y="1360" width="90" height="40" as="geometry" />
        </mxCell>
        <mxCell id="-V5eyxkP05oD3qSyahIk-28" value="B2" style="rounded=1;whiteSpace=wrap;html=1;fillColor=#f8cecc;strokeColor=#b85450;" vertex="1" parent="1">
          <mxGeometry x="200" y="1360" width="120" height="40" as="geometry" />
        </mxCell>
        <mxCell id="-V5eyxkP05oD3qSyahIk-29" value="B3" style="rounded=1;whiteSpace=wrap;html=1;fillColor=#fff2cc;strokeColor=#d6b656;" vertex="1" parent="1">
          <mxGeometry x="320" y="1360" width="160" height="40" as="geometry" />
        </mxCell>
        <mxCell id="-V5eyxkP05oD3qSyahIk-33" value="B4" style="rounded=1;whiteSpace=wrap;html=1;fillColor=#d5e8d4;strokeColor=#82b366;" vertex="1" parent="1">
          <mxGeometry x="480" y="1360" width="80" height="40" as="geometry" />
        </mxCell>
        <mxCell id="-V5eyxkP05oD3qSyahIk-34" value="" style="endArrow=none;dashed=1;html=1;rounded=0;exitX=0;exitY=0;exitDx=0;exitDy=0;entryX=0;entryY=1;entryDx=0;entryDy=0;" edge="1" parent="1" source="-V5eyxkP05oD3qSyahIk-27" target="-V5eyxkP05oD3qSyahIk-23">
          <mxGeometry width="50" height="50" relative="1" as="geometry">
            <mxPoint x="420" y="1200" as="sourcePoint" />
            <mxPoint x="470" y="1150" as="targetPoint" />
          </mxGeometry>
        </mxCell>
        <mxCell id="-V5eyxkP05oD3qSyahIk-35" value="" style="endArrow=none;dashed=1;html=1;rounded=0;exitX=1;exitY=0;exitDx=0;exitDy=0;entryX=0;entryY=1;entryDx=0;entryDy=0;" edge="1" parent="1" source="-V5eyxkP05oD3qSyahIk-27" target="-V5eyxkP05oD3qSyahIk-24">
          <mxGeometry width="50" height="50" relative="1" as="geometry">
            <mxPoint x="420" y="1200" as="sourcePoint" />
            <mxPoint x="470" y="1150" as="targetPoint" />
          </mxGeometry>
        </mxCell>
        <mxCell id="-V5eyxkP05oD3qSyahIk-36" value="B5" style="rounded=1;whiteSpace=wrap;html=1;fillColor=#dae8fc;strokeColor=#6c8ebf;" vertex="1" parent="1">
          <mxGeometry x="560" y="1360" width="80" height="40" as="geometry" />
        </mxCell>
        <mxCell id="-V5eyxkP05oD3qSyahIk-38" value="" style="endArrow=none;dashed=1;html=1;rounded=0;exitX=0;exitY=1;exitDx=0;exitDy=0;entryX=0;entryY=0;entryDx=0;entryDy=0;" edge="1" parent="1" source="-V5eyxkP05oD3qSyahIk-25" target="-V5eyxkP05oD3qSyahIk-33">
          <mxGeometry width="50" height="50" relative="1" as="geometry">
            <mxPoint x="420" y="1200" as="sourcePoint" />
            <mxPoint x="470" y="1150" as="targetPoint" />
          </mxGeometry>
        </mxCell>
        <mxCell id="-V5eyxkP05oD3qSyahIk-39" value="" style="endArrow=none;dashed=1;html=1;rounded=0;exitX=0;exitY=1;exitDx=0;exitDy=0;entryX=1;entryY=0;entryDx=0;entryDy=0;" edge="1" parent="1" source="-V5eyxkP05oD3qSyahIk-26" target="-V5eyxkP05oD3qSyahIk-33">
          <mxGeometry width="50" height="50" relative="1" as="geometry">
            <mxPoint x="420" y="1200" as="sourcePoint" />
            <mxPoint x="470" y="1150" as="targetPoint" />
          </mxGeometry>
        </mxCell>
      </root>
    </mxGraphModel>
  </diagram>
</mxfile>
